<svg width="400" height="400" viewBox="0 0 400 400" fill="none" xmlns="http://www.w3.org/2000/svg">
<rect width="400" height="400" fill="url(#paint0_linear_3_11)"/>
<g filter="url(#filter0_d_3_11)">
<path d="M90.7368 204.092C77.7471 196.844 77.7471 178.156 90.7368 170.908L233.742 91.1164C246.407 84.05 262 93.2058 262 107.708L262 267.292C262 281.794 246.407 290.95 233.742 283.884L90.7368 204.092Z" fill="white"/>
</g>
<g filter="url(#filter1_d_3_11)">
<rect x="195" y="200" width="150" height="150" rx="39" fill="white"/>
<rect x="198.5" y="203.5" width="143" height="143" rx="35.5" stroke="black" stroke-width="7"/>
</g>
<line x1="200" y1="238.5" x2="340" y2="238.5" stroke="black" stroke-width="7"/>
<path d="M265.667 317H231.988V312.113L245.734 298.156C248.288 295.578 250.433 293.281 252.167 291.266C253.925 289.25 255.261 287.27 256.175 285.324C257.089 283.355 257.546 281.199 257.546 278.855C257.546 275.949 256.679 273.734 254.945 272.211C253.234 270.664 250.972 269.891 248.16 269.891C245.699 269.891 243.519 270.312 241.62 271.156C239.722 272 237.777 273.195 235.785 274.742L232.656 270.805C234.015 269.656 235.492 268.637 237.085 267.746C238.702 266.855 240.425 266.152 242.253 265.637C244.105 265.121 246.074 264.863 248.16 264.863C251.324 264.863 254.054 265.414 256.351 266.516C258.648 267.617 260.417 269.188 261.66 271.227C262.925 273.266 263.558 275.691 263.558 278.504C263.558 281.223 263.019 283.754 261.941 286.098C260.863 288.418 259.351 290.727 257.406 293.023C255.46 295.297 253.187 297.711 250.585 300.266L239.406 311.41V311.656H265.667V317ZM307.872 291.23C307.872 295.402 307.555 299.129 306.923 302.41C306.29 305.691 305.294 308.469 303.934 310.742C302.575 313.016 300.817 314.75 298.661 315.945C296.505 317.117 293.915 317.703 290.891 317.703C287.071 317.703 283.907 316.66 281.399 314.574C278.915 312.488 277.051 309.477 275.809 305.539C274.59 301.578 273.981 296.809 273.981 291.23C273.981 285.746 274.532 281.035 275.633 277.098C276.758 273.137 278.563 270.102 281.048 267.992C283.532 265.859 286.813 264.793 290.891 264.793C294.758 264.793 297.946 265.848 300.454 267.957C302.962 270.043 304.825 273.066 306.044 277.027C307.262 280.965 307.872 285.699 307.872 291.23ZM279.852 291.23C279.852 296.012 280.215 299.996 280.942 303.184C281.669 306.371 282.84 308.762 284.458 310.355C286.098 311.926 288.243 312.711 290.891 312.711C293.54 312.711 295.673 311.926 297.29 310.355C298.93 308.785 300.114 306.406 300.84 303.219C301.59 300.031 301.965 296.035 301.965 291.23C301.965 286.52 301.602 282.582 300.876 279.418C300.149 276.23 298.977 273.84 297.36 272.246C295.743 270.629 293.587 269.82 290.891 269.82C288.196 269.82 286.04 270.629 284.423 272.246C282.805 273.84 281.633 276.23 280.907 279.418C280.204 282.582 279.852 286.52 279.852 291.23Z" fill="black"/>
<defs>
<filter id="filter0_d_3_11" x="76.9945" y="88.681" width="189.005" height="205.638" filterUnits="userSpaceOnUse" color-interpolation-filters="sRGB">
<feFlood flood-opacity="0" result="BackgroundImageFix"/>
<feColorMatrix in="SourceAlpha" type="matrix" values="0 0 0 0 0 0 0 0 0 0 0 0 0 0 0 0 0 0 127 0" result="hardAlpha"/>
<feOffset dy="4"/>
<feGaussianBlur stdDeviation="2"/>
<feComposite in2="hardAlpha" operator="out"/>
<feColorMatrix type="matrix" values="0 0 0 0 0 0 0 0 0 0 0 0 0 0 0 0 0 0 0.25 0"/>
<feBlend mode="normal" in2="BackgroundImageFix" result="effect1_dropShadow_3_11"/>
<feBlend mode="normal" in="SourceGraphic" in2="effect1_dropShadow_3_11" result="shape"/>
</filter>
<filter id="filter1_d_3_11" x="191" y="200" width="158" height="158" filterUnits="userSpaceOnUse" color-interpolation-filters="sRGB">
<feFlood flood-opacity="0" result="BackgroundImageFix"/>
<feColorMatrix in="SourceAlpha" type="matrix" values="0 0 0 0 0 0 0 0 0 0 0 0 0 0 0 0 0 0 127 0" result="hardAlpha"/>
<feOffset dy="4"/>
<feGaussianBlur stdDeviation="2"/>
<feComposite in2="hardAlpha" operator="out"/>
<feColorMatrix type="matrix" values="0 0 0 0 0 0 0 0 0 0 0 0 0 0 0 0 0 0 0.25 0"/>
<feBlend mode="normal" in2="BackgroundImageFix" result="effect1_dropShadow_3_11"/>
<feBlend mode="normal" in="SourceGraphic" in2="effect1_dropShadow_3_11" result="shape"/>
</filter>
<linearGradient id="paint0_linear_3_11" x1="400" y1="200" x2="0" y2="200" gradientUnits="userSpaceOnUse">
<stop stop-color="#B0E1F0"/>
<stop offset="1" stop-color="#43C3EC"/>
</linearGradient>
</defs>
</svg>
